HIERARCHY
ROOT joint_Root
{
	OFFSET 0.0 0.0 0.0
	CHANNELS 6 Xposition Yposition Zposition Zrotation Xrotation Yrotation 
	JOINT Hips
	{
		OFFSET -17.1583 93.1646 452.98
		CHANNELS 6 Xposition Yposition Zposition Zrotation Xrotation Yrotation 
		JOINT Spine
		{
			OFFSET 15.7357 0.0 0.0
			CHANNELS 6 Xposition Yposition Zposition Zrotation Xrotation Yrotation 
			JOINT Chest
			{
				OFFSET 8.98455 -0.406207 0.0
				CHANNELS 6 Xposition Yposition Zposition Zrotation Xrotation Yrotation 
				JOINT Neck
				{
					OFFSET 16.3773 0.0 0.0
					CHANNELS 6 Xposition Yposition Zposition Zrotation Xrotation Yrotation 
					JOINT Head
					{
						OFFSET 6.45672 0.0 0.0
						CHANNELS 6 Xposition Yposition Zposition Zrotation Xrotation Yrotation 
						End Site
						{
							OFFSET 0.0 0.0 0.0
						}
					}
				}
				JOINT Shoulder_L
				{
					OFFSET 12.9942 -0.242716 4.98039
					CHANNELS 6 Xposition Yposition Zposition Zrotation Xrotation Yrotation 
					JOINT UpperArm_L
					{
						OFFSET 5.34809 0.0 0.0
						CHANNELS 6 Xposition Yposition Zposition Zrotation Xrotation Yrotation 
						JOINT LowerArm_L
						{
							OFFSET 24.3286 1.87007e-05 0.0
							CHANNELS 6 Xposition Yposition Zposition Zrotation Xrotation Yrotation 
							JOINT Hand_L
							{
								OFFSET 22.2916 0.0 0.0
								CHANNELS 6 Xposition Yposition Zposition Zrotation Xrotation Yrotation 
								End Site
								{
									OFFSET 0.0 0.0 0.0
								}
							}
						}
					}
				}
				JOINT Shoulder_R
				{
					OFFSET 12.9945 -0.242716 -4.98039
					CHANNELS 6 Xposition Yposition Zposition Zrotation Xrotation Yrotation 
					JOINT UpperArm_R
					{
						OFFSET -5.34813 0.0 0.0
						CHANNELS 6 Xposition Yposition Zposition Zrotation Xrotation Yrotation 
						JOINT LowerArm_R
						{
							OFFSET -24.3289 0.000322201 0.0
							CHANNELS 6 Xposition Yposition Zposition Zrotation Xrotation Yrotation 
							JOINT Hand_R
							{
								OFFSET -22.2915 -0.000108084 0.0
								CHANNELS 6 Xposition Yposition Zposition Zrotation Xrotation Yrotation 
								End Site
								{
									OFFSET 0.0 0.0 0.0
								}
							}
						}
					}
				}
			}
		}
		JOINT UpperLeg_L
		{
			OFFSET -2.19248 -6.46944 0.0
			CHANNELS 6 Xposition Yposition Zposition Zrotation Xrotation Yrotation 
			JOINT LowerLeg_L
			{
				OFFSET 39.0811 0.0 -1.23785e-05
				CHANNELS 6 Xposition Yposition Zposition Zrotation Xrotation Yrotation 
				JOINT Foot_L
				{
					OFFSET 40.9854 0.0 -1.26872e-05
					CHANNELS 6 Xposition Yposition Zposition Zrotation Xrotation Yrotation 
					JOINT Toes_L
					{
						OFFSET 11.7543 0.0 0.0
						CHANNELS 6 Xposition Yposition Zposition Zrotation Xrotation Yrotation 
						End Site
						{
							OFFSET 0.0 0.0 0.0
						}
					}
				}
			}
		}
		JOINT UpperLeg_R
		{
			OFFSET -2.19251 6.46944 0.0
			CHANNELS 6 Xposition Yposition Zposition Zrotation Xrotation Yrotation 
			JOINT LowerLeg_R
			{
				OFFSET -39.0811 -0.00228153 -0.0401928
				CHANNELS 6 Xposition Yposition Zposition Zrotation Xrotation Yrotation 
				JOINT Foot_R
				{
					OFFSET -40.9854 0.0 0.0
					CHANNELS 6 Xposition Yposition Zposition Zrotation Xrotation Yrotation 
					JOINT Toes_R
					{
						OFFSET -11.7543 0.0 0.0
						CHANNELS 6 Xposition Yposition Zposition Zrotation Xrotation Yrotation 
						End Site
						{
							OFFSET 0.0 0.0 0.0
						}
					}
				}
			}
		}
	}
}
MOTION
Frames:	6
Frame Time:	0.0333333
0.000000 0.000000 0.000000 0.000000 0.000000 -0.000000 2.708430 93.140200 1.392770 90.754500 1.869580 -0.798947 15.735700 0.000005 -0.000001 70.742100 88.036400 -61.606700 8.984550 -0.406207 -0.000000 -3.817430 -2.214190 18.207100 16.377300 -0.000001 -0.000001 -3.261300 -0.145923 9.700950 6.456720 -0.000001 -0.000000 -0.246475 -0.159422 14.133000 12.994200 -0.242716 4.980390 -86.915000 -6.464960 -64.421300 5.348090 -0.000007 -0.000001 -27.947600 -55.186800 -57.115800 24.328600 0.000019 0.000005 0.000055 26.721000 -0.000002 22.291600 -0.000001 0.000005 46.547200 4.361540 18.832600 12.994500 -0.242716 -4.980390 89.267500 2.508680 -73.717200 -5.348130 -0.000001 -0.000004 -58.043500 3.845200 -7.387880 -24.328900 0.000322 -0.000009 3.014520 10.337100 -16.361200 -22.291500 -0.000108 -0.000004 8.579850 5.214440 2.354660 -2.192480 -6.469440 -0.000000 -178.021000 -7.430250 0.278736 39.081100 -0.000007 -0.000012 0.030213 -0.147234 11.596700 40.985400 -0.000006 -0.000013 1.399650 15.961700 -68.369400 11.754300 -0.000000 0.000003 -0.000430 0.174567 -9.496080 -2.192510 6.469440 -0.000001 171.939000 7.224370 -176.609000 -39.081100 -0.002282 -0.040193 0.002989 0.002805 7.205880 -40.985400 0.000008 0.000006 -10.997200 5.188800 -65.536000 -11.754300 -0.000006 -0.000006 -0.010598 0.275718 -5.370460
0.000000 0.000000 0.000000 0.000000 0.000000 -0.000000 2.681010 93.138300 1.423720 90.758000 1.943440 -0.709968 15.735700 0.000005 -0.000001 70.910300 88.013700 -61.799900 8.984550 -0.406207 -0.000000 -3.771580 -2.212070 18.157700 16.377300 -0.000001 -0.000001 -3.269160 -0.162070 9.687840 6.456720 -0.000001 -0.000000 -0.203905 -0.178135 14.135400 12.994200 -0.242716 4.980390 -86.923600 -6.448790 -64.428100 5.348090 -0.000007 -0.000001 -28.014300 -55.196400 -57.019700 24.328600 0.000019 0.000005 0.000056 26.622500 -0.000002 22.291600 -0.000001 0.000005 46.420400 4.374300 18.631200 12.994500 -0.242716 -4.980390 89.258800 2.540650 -73.730300 -5.348130 -0.000001 -0.000004 -58.452300 4.027020 -7.035320 -24.328900 0.000322 -0.000009 2.983970 10.360100 -16.170300 -22.291500 -0.000108 -0.000004 8.574480 5.213480 2.379090 -2.192480 -6.469440 -0.000000 -178.004000 -7.250350 0.402053 39.081100 -0.000007 -0.000012 0.030773 -0.150380 11.565400 40.985400 -0.000006 -0.000013 1.368960 15.860800 -68.383300 11.754300 -0.000000 0.000003 -0.000480 0.175340 -9.464670 -2.192510 6.469440 -0.000001 171.936000 7.290830 -176.475000 -39.081100 -0.002282 -0.040193 0.002776 0.004499 7.194670 -40.985400 0.000008 0.000006 -11.004500 5.183310 -65.543700 -11.754300 -0.000006 -0.000006 -0.010656 0.276142 -5.353100
0.000000 0.000000 0.000000 0.000000 0.000000 -0.000000 2.660680 93.123000 1.449330 90.734400 2.028430 -0.641890 15.735700 0.000005 -0.000001 71.150000 87.994600 -62.047600 8.984550 -0.406207 -0.000000 -3.730910 -2.204670 18.142600 16.377300 -0.000001 -0.000001 -3.144900 -0.172744 9.734500 6.456720 -0.000001 -0.000000 -0.346167 -0.226520 14.006600 12.994200 -0.242716 4.980390 -86.937100 -6.414340 -64.407000 5.348090 -0.000007 -0.000001 -28.004900 -55.120000 -56.898700 24.328600 0.000019 0.000005 0.000055 26.678500 -0.000002 22.291600 -0.000001 0.000005 46.387600 4.372230 18.664000 12.994500 -0.242716 -4.980390 89.250700 2.559390 -73.675500 -5.348130 -0.000001 -0.000004 -58.813100 4.262780 -6.764800 -24.328900 0.000322 -0.000009 2.934130 10.318700 -15.973600 -22.291500 -0.000108 -0.000004 8.417430 5.214800 2.345410 -2.192480 -6.469440 -0.000000 -177.930000 -7.369260 0.384054 39.081100 -0.000007 -0.000012 0.031215 -0.150021 11.753900 40.985400 -0.000006 -0.000013 1.402100 16.063100 -68.445300 11.754300 -0.000000 0.000003 -0.000378 0.173758 -9.528930 -2.192510 6.469440 -0.000001 171.975000 7.297340 -176.462000 -39.081100 -0.002282 -0.040193 0.002568 0.005981 7.389480 -40.985400 0.000008 0.000006 -10.959400 5.143370 -65.684500 -11.754300 -0.000006 -0.000006 -0.010735 0.276717 -5.329560
0.000000 0.000000 0.000000 0.000000 0.000000 -0.000000 2.647950 93.117100 1.486520 90.771800 2.076190 -0.568465 15.735700 0.000005 -0.000001 71.743100 87.979900 -62.674500 8.984550 -0.406207 -0.000000 -3.693680 -2.168280 18.076500 16.377300 -0.000001 -0.000001 -3.062460 -0.198480 9.731110 6.456720 -0.000001 -0.000000 -0.421496 -0.285470 13.927600 12.994200 -0.242716 4.980390 -86.938000 -6.402240 -64.371400 5.348090 -0.000007 -0.000001 -28.151600 -55.004900 -56.886500 24.328600 0.000019 0.000005 0.000054 26.627100 -0.000002 22.291600 -0.000001 0.000005 46.358200 4.372580 18.658500 12.994500 -0.242716 -4.980390 89.233300 2.613490 -73.644000 -5.348130 -0.000001 -0.000004 -59.115400 4.424590 -6.457430 -24.328900 0.000322 -0.000009 2.936470 10.389200 -15.883800 -22.291500 -0.000108 -0.000004 8.180880 5.212010 2.416310 -2.192480 -6.469440 -0.000000 -177.935000 -7.367750 0.492270 39.081100 -0.000007 -0.000012 0.031049 -0.149441 11.737400 40.985400 -0.000006 -0.000013 1.398820 16.133200 -68.508200 11.754300 -0.000000 0.000003 -0.000558 0.176539 -9.415960 -2.192510 6.469440 -0.000001 171.943000 7.386210 -176.412000 -39.081100 -0.002282 -0.040193 0.002335 0.007638 7.520940 -40.985400 0.000008 0.000006 -10.820900 5.138160 -65.822800 -11.754300 -0.000006 -0.000006 -0.010859 0.277618 -5.292710
0.000000 0.000000 0.000000 0.000000 0.000000 -0.000000 2.632420 93.101400 1.525500 90.740300 2.137010 -0.520479 15.735700 0.000005 -0.000001 71.786300 87.980700 -62.725000 8.984550 -0.406207 -0.000000 -3.694950 -2.164210 18.062000 16.377300 -0.000001 -0.000001 -3.043930 -0.242828 9.721530 6.456720 -0.000001 -0.000000 -0.315431 -0.305839 13.822700 12.994200 -0.242716 4.980390 -86.942400 -6.396930 -64.385400 5.348090 -0.000007 -0.000001 -28.452700 -54.998300 -56.936300 24.328600 0.000019 0.000005 0.000055 26.486900 -0.000002 22.291600 -0.000001 0.000005 46.194100 4.368720 18.719400 12.994500 -0.242716 -4.980390 89.229200 2.623010 -73.617800 -5.348130 -0.000001 -0.000004 -59.446500 4.469150 -6.192840 -24.328900 0.000322 -0.000009 2.940740 10.502800 -15.744000 -22.291500 -0.000108 -0.000004 8.170140 5.212840 2.395340 -2.192480 -6.469440 -0.000000 -177.877000 -7.393790 0.461662 39.081100 -0.000007 -0.000012 0.031480 -0.149108 11.921600 40.985400 -0.000006 -0.000013 1.427300 16.206700 -68.555800 11.754300 -0.000000 0.000003 -0.000433 0.174620 -9.493920 -2.192510 6.469440 -0.000001 171.985000 7.433620 -176.408000 -39.081100 -0.002282 -0.040193 0.002019 0.009822 7.678080 -40.985400 0.000008 0.000006 -10.751300 5.141860 -65.901700 -11.754300 -0.000006 -0.000006 -0.010760 0.276899 -5.322140
0.000000 0.000000 0.000000 0.000000 0.000000 -0.000000 2.623200 93.097900 1.558010 90.756500 2.199690 -0.501632 15.735700 0.000005 -0.000001 71.393700 87.974100 -62.352900 8.984550 -0.406207 -0.000000 -3.689620 -2.192230 18.020000 16.377300 -0.000001 -0.000001 -2.995870 -0.238951 9.732950 6.456720 -0.000001 -0.000000 -0.240244 -0.315733 13.705200 12.994200 -0.242716 4.980390 -86.955400 -6.369440 -64.385300 5.348090 -0.000007 -0.000001 -28.354200 -54.921700 -56.658800 24.328600 0.000019 0.000005 0.000055 26.532000 -0.000002 22.291600 -0.000001 0.000005 46.070200 4.363350 18.804100 12.994500 -0.242716 -4.980390 89.236200 2.602770 -73.639600 -5.348130 -0.000001 -0.000004 -59.711200 4.602770 -5.939410 -24.328900 0.000322 -0.000009 2.935830 10.503800 -15.717600 -22.291500 -0.000108 -0.000004 8.203780 5.216110 2.311960 -2.192480 -6.469440 -0.000000 -177.884000 -7.333330 0.510765 39.081100 -0.000007 -0.000012 0.031382 -0.149023 11.892100 40.985400 -0.000006 -0.000013 1.420630 16.203500 -68.540200 11.754300 -0.000000 0.000003 -0.000418 0.174390 -9.503270 -2.192510 6.469440 -0.000001 171.972000 7.414330 -176.365000 -39.081100 -0.002282 -0.040193 0.001968 0.010160 7.704090 -40.985400 0.000008 0.000006 -10.767800 5.104160 -65.980200 -11.754300 -0.000006 -0.000006 -0.011004 0.278663 -5.249940
